<svg xmlns="http://www.w3.org/2000/svg" xmlns:xlink="http://www.w3.org/1999/xlink" width="500" zoomAndPan="magnify" viewBox="0 0 375 374.999991" height="500" preserveAspectRatio="xMidYMid meet" version="1.0"><defs><g/><clipPath id="8a6a6fa7a7"><path d="M 206 113.792969 L 288.394531 113.792969 L 288.394531 190 L 206 190 Z M 206 113.792969 " clip-rule="nonzero"/></clipPath><clipPath id="8c49b9dacb"><path d="M 168 113.792969 L 220 113.792969 L 220 179 L 168 179 Z M 168 113.792969 " clip-rule="nonzero"/></clipPath><clipPath id="12a5cbe041"><path d="M 86.644531 136 L 135 136 L 135 190 L 86.644531 190 Z M 86.644531 136 " clip-rule="nonzero"/></clipPath><clipPath id="04b3e6bd2c"><path d="M 203 246.242188 L 211 246.242188 L 211 250 L 203 250 Z M 203 246.242188 " clip-rule="nonzero"/></clipPath><clipPath id="ab6a37410b"><path d="M 202.117188 248 L 207 248 L 207 254 L 202.117188 254 Z M 202.117188 248 " clip-rule="nonzero"/></clipPath><clipPath id="d3697d0739"><path d="M 209 246.242188 L 214 246.242188 L 214 253 L 209 253 Z M 209 246.242188 " clip-rule="nonzero"/></clipPath><clipPath id="3800a89021"><path d="M 205 254 L 213 254 L 213 258.5 L 205 258.5 Z M 205 254 " clip-rule="nonzero"/></clipPath><clipPath id="7605e7fd49"><path d="M 202.117188 251 L 207 251 L 207 258 L 202.117188 258 Z M 202.117188 251 " clip-rule="nonzero"/></clipPath></defs><rect x="-37.5" width="450" fill="#ffffff" y="-37.499999" height="449.999989" fill-opacity="1"/><rect x="-37.5" width="450" fill="#1a2f47" y="-37.499999" height="449.999989" fill-opacity="1"/><g clip-path="url(#8a6a6fa7a7)"><path fill="#e6b35b" d="M 219.660156 113.800781 L 288.347656 189.925781 L 206.1875 189.925781 L 269.09375 183.710938 L 219.660156 128.917969 L 219.660156 113.800781 " fill-opacity="1" fill-rule="nonzero"/></g><g clip-path="url(#8c49b9dacb)"><path fill="#c69237" d="M 168.472656 170.53125 L 175.300781 178.09375 L 219.660156 128.917969 L 219.660156 113.800781 L 168.472656 170.53125 " fill-opacity="1" fill-rule="nonzero"/></g><g clip-path="url(#12a5cbe041)"><path fill="#c69237" d="M 111.078125 162.867188 L 111.078125 153.738281 L 102.035156 153.738281 L 96.539062 161.632812 L 102.035156 158.746094 L 102.035156 172.878906 L 86.644531 189.925781 L 100.296875 189.925781 L 134.441406 152.113281 L 134.441406 136.996094 L 111.078125 162.867188 " fill-opacity="1" fill-rule="nonzero"/></g><path fill="#e6b35b" d="M 134.441406 136.996094 L 134.441406 152.113281 L 168.585938 189.925781 L 182.234375 189.925781 L 134.441406 136.996094 " fill-opacity="1" fill-rule="nonzero"/><path fill="#e6b35b" d="M 218.558594 165.242188 L 209.550781 165.242188 L 209.550781 156.230469 L 218.558594 156.230469 L 218.558594 165.242188 " fill-opacity="1" fill-rule="nonzero"/><path fill="#e6b35b" d="M 229.773438 165.242188 L 220.761719 165.242188 L 220.761719 156.230469 L 229.773438 156.230469 L 229.773438 165.242188 " fill-opacity="1" fill-rule="nonzero"/><path fill="#e6b35b" d="M 218.558594 176.542969 L 209.550781 176.542969 L 209.550781 167.53125 L 218.558594 167.53125 L 218.558594 176.542969 " fill-opacity="1" fill-rule="nonzero"/><path fill="#e6b35b" d="M 229.773438 176.542969 L 220.761719 176.542969 L 220.761719 167.53125 L 229.773438 167.53125 L 229.773438 176.542969 " fill-opacity="1" fill-rule="nonzero"/><path fill="#e6b35b" d="M 133.636719 177.257812 L 127.054688 177.257812 L 127.054688 170.675781 L 133.636719 170.675781 L 133.636719 177.257812 " fill-opacity="1" fill-rule="nonzero"/><path fill="#e6b35b" d="M 141.828125 177.257812 L 135.246094 177.257812 L 135.246094 170.675781 L 141.828125 170.675781 L 141.828125 177.257812 " fill-opacity="1" fill-rule="nonzero"/><path fill="#e6b35b" d="M 133.636719 185.511719 L 127.054688 185.511719 L 127.054688 178.929688 L 133.636719 178.929688 L 133.636719 185.511719 " fill-opacity="1" fill-rule="nonzero"/><path fill="#e6b35b" d="M 141.828125 185.511719 L 135.246094 185.511719 L 135.246094 178.929688 L 141.828125 178.929688 L 141.828125 185.511719 " fill-opacity="1" fill-rule="nonzero"/><path stroke-linecap="butt" transform="matrix(1.021449, 0, 0, 1.021449, 33.670249, 251.09143)" fill="none" stroke-linejoin="miter" d="M 0.001592 0.49942 L 31.513186 0.49942 " stroke="#ffffff" stroke-width="1" stroke-opacity="1" stroke-miterlimit="4"/><path stroke-linecap="butt" transform="matrix(1.021449, 0, 0, 1.021449, 308.597211, 251.09143)" fill="none" stroke-linejoin="miter" d="M 0.000435474 0.49942 L 32.043596 0.49942 " stroke="#ffffff" stroke-width="1" stroke-opacity="1" stroke-miterlimit="4"/><g fill="#e6b35b" fill-opacity="1"><g transform="translate(81.488965, 257.408411)"><g><path d="M 9.953125 0 L 8.65625 0 L 8.65625 -5.21875 L 2.8125 -5.21875 L 2.8125 0 L 1.53125 0 L 1.53125 -11.09375 L 2.8125 -11.09375 L 2.8125 -6.375 L 8.65625 -6.375 L 8.65625 -11.09375 L 9.953125 -11.09375 Z M 9.953125 0 "/></g></g></g><g fill="#e6b35b" fill-opacity="1"><g transform="translate(96.159505, 257.408411)"><g><path d="M 11.15625 -5.5625 C 11.15625 -3.789062 10.707031 -2.394531 9.8125 -1.375 C 8.914062 -0.351562 7.664062 0.15625 6.0625 0.15625 C 4.425781 0.15625 3.164062 -0.34375 2.28125 -1.34375 C 1.394531 -2.34375 0.953125 -3.753906 0.953125 -5.578125 C 0.953125 -7.390625 1.394531 -8.789062 2.28125 -9.78125 C 3.175781 -10.769531 4.441406 -11.265625 6.078125 -11.265625 C 7.671875 -11.265625 8.914062 -10.757812 9.8125 -9.75 C 10.707031 -8.738281 11.15625 -7.34375 11.15625 -5.5625 Z M 2.3125 -5.5625 C 2.3125 -4.0625 2.628906 -2.921875 3.265625 -2.140625 C 3.910156 -1.367188 4.84375 -0.984375 6.0625 -0.984375 C 7.289062 -0.984375 8.21875 -1.367188 8.84375 -2.140625 C 9.476562 -2.910156 9.796875 -4.050781 9.796875 -5.5625 C 9.796875 -7.050781 9.484375 -8.179688 8.859375 -8.953125 C 8.234375 -9.734375 7.304688 -10.125 6.078125 -10.125 C 4.847656 -10.125 3.910156 -9.734375 3.265625 -8.953125 C 2.628906 -8.171875 2.3125 -7.039062 2.3125 -5.5625 Z M 2.3125 -5.5625 "/></g></g></g><g fill="#e6b35b" fill-opacity="1"><g transform="translate(111.467508, 257.408411)"><g><path d="M 6.4375 0 L 2.671875 -9.84375 L 2.609375 -9.84375 C 2.679688 -9.0625 2.71875 -8.132812 2.71875 -7.0625 L 2.71875 0 L 1.53125 0 L 1.53125 -11.09375 L 3.46875 -11.09375 L 6.984375 -1.9375 L 7.046875 -1.9375 L 10.59375 -11.09375 L 12.515625 -11.09375 L 12.515625 0 L 11.234375 0 L 11.234375 -7.15625 C 11.234375 -7.96875 11.265625 -8.859375 11.328125 -9.828125 L 11.265625 -9.828125 L 7.484375 0 Z M 6.4375 0 "/></g></g></g><g fill="#e6b35b" fill-opacity="1"><g transform="translate(128.703079, 257.408411)"><g><path d="M 7.71875 0 L 1.53125 0 L 1.53125 -11.09375 L 7.71875 -11.09375 L 7.71875 -9.953125 L 2.8125 -9.953125 L 2.8125 -6.375 L 7.421875 -6.375 L 7.421875 -5.234375 L 2.8125 -5.234375 L 2.8125 -1.15625 L 7.71875 -1.15625 Z M 7.71875 0 "/></g></g></g><g fill="#e6b35b" fill-opacity="1"><g transform="translate(140.550573, 257.408411)"><g/></g></g><g fill="#e6b35b" fill-opacity="1"><g transform="translate(147.791632, 257.408411)"><g><path d="M 8.5625 -7.859375 C 8.5625 -6.734375 8.175781 -5.867188 7.40625 -5.265625 C 6.644531 -4.660156 5.550781 -4.359375 4.125 -4.359375 L 2.8125 -4.359375 L 2.8125 0 L 1.53125 0 L 1.53125 -11.09375 L 4.40625 -11.09375 C 7.175781 -11.09375 8.5625 -10.015625 8.5625 -7.859375 Z M 2.8125 -5.46875 L 3.984375 -5.46875 C 5.117188 -5.46875 5.941406 -5.648438 6.453125 -6.015625 C 6.972656 -6.390625 7.234375 -6.984375 7.234375 -7.796875 C 7.234375 -8.535156 6.988281 -9.082031 6.5 -9.4375 C 6.019531 -9.800781 5.273438 -9.984375 4.265625 -9.984375 L 2.8125 -9.984375 Z M 2.8125 -5.46875 "/></g></g></g><g fill="#e6b35b" fill-opacity="1"><g transform="translate(160.352477, 257.408411)"><g><path d="M 9.953125 0 L 8.65625 0 L 8.65625 -5.21875 L 2.8125 -5.21875 L 2.8125 0 L 1.53125 0 L 1.53125 -11.09375 L 2.8125 -11.09375 L 2.8125 -6.375 L 8.65625 -6.375 L 8.65625 -11.09375 L 9.953125 -11.09375 Z M 9.953125 0 "/></g></g></g><g fill="#e6b35b" fill-opacity="1"><g transform="translate(175.023018, 257.408411)"><g><path d="M 11.15625 -5.5625 C 11.15625 -3.789062 10.707031 -2.394531 9.8125 -1.375 C 8.914062 -0.351562 7.664062 0.15625 6.0625 0.15625 C 4.425781 0.15625 3.164062 -0.34375 2.28125 -1.34375 C 1.394531 -2.34375 0.953125 -3.753906 0.953125 -5.578125 C 0.953125 -7.390625 1.394531 -8.789062 2.28125 -9.78125 C 3.175781 -10.769531 4.441406 -11.265625 6.078125 -11.265625 C 7.671875 -11.265625 8.914062 -10.757812 9.8125 -9.75 C 10.707031 -8.738281 11.15625 -7.34375 11.15625 -5.5625 Z M 2.3125 -5.5625 C 2.3125 -4.0625 2.628906 -2.921875 3.265625 -2.140625 C 3.910156 -1.367188 4.84375 -0.984375 6.0625 -0.984375 C 7.289062 -0.984375 8.21875 -1.367188 8.84375 -2.140625 C 9.476562 -2.910156 9.796875 -4.050781 9.796875 -5.5625 C 9.796875 -7.050781 9.484375 -8.179688 8.859375 -8.953125 C 8.234375 -9.734375 7.304688 -10.125 6.078125 -10.125 C 4.847656 -10.125 3.910156 -9.734375 3.265625 -8.953125 C 2.628906 -8.171875 2.3125 -7.039062 2.3125 -5.5625 Z M 2.3125 -5.5625 "/></g></g></g><g fill="#e6b35b" fill-opacity="1"><g transform="translate(190.331022, 257.408411)"><g><path d="M 4.9375 0 L 3.65625 0 L 3.65625 -9.953125 L 0.140625 -9.953125 L 0.140625 -11.09375 L 8.453125 -11.09375 L 8.453125 -9.953125 L 4.9375 -9.953125 Z M 4.9375 0 "/></g></g></g><g fill="#e6b35b" fill-opacity="1"><g transform="translate(202.143961, 257.408411)"><g/></g></g><g fill="#e6b35b" fill-opacity="1"><g transform="translate(209.38502, 257.408411)"><g/></g></g><g fill="#e6b35b" fill-opacity="1"><g transform="translate(216.631929, 257.408411)"><g><path d="M 6.40625 -5.8125 L 10.1875 -5.8125 L 10.1875 -0.421875 C 9.59375 -0.234375 8.992188 -0.09375 8.390625 0 C 7.785156 0.101562 7.082031 0.15625 6.28125 0.15625 C 4.59375 0.15625 3.28125 -0.34375 2.34375 -1.34375 C 1.414062 -2.34375 0.953125 -3.742188 0.953125 -5.546875 C 0.953125 -6.703125 1.179688 -7.710938 1.640625 -8.578125 C 2.109375 -9.453125 2.773438 -10.117188 3.640625 -10.578125 C 4.515625 -11.035156 5.535156 -11.265625 6.703125 -11.265625 C 7.890625 -11.265625 8.992188 -11.046875 10.015625 -10.609375 L 9.515625 -9.46875 C 8.515625 -9.894531 7.550781 -10.109375 6.625 -10.109375 C 5.269531 -10.109375 4.210938 -9.703125 3.453125 -8.890625 C 2.691406 -8.085938 2.3125 -6.972656 2.3125 -5.546875 C 2.3125 -4.046875 2.675781 -2.910156 3.40625 -2.140625 C 4.144531 -1.367188 5.222656 -0.984375 6.640625 -0.984375 C 7.398438 -0.984375 8.148438 -1.070312 8.890625 -1.25 L 8.890625 -4.65625 L 6.40625 -4.65625 Z M 6.40625 -5.8125 "/></g></g></g><g fill="#e6b35b" fill-opacity="1"><g transform="translate(231.150693, 257.408411)"><g><path d="M 2.8125 -4.609375 L 2.8125 0 L 1.53125 0 L 1.53125 -11.09375 L 4.5625 -11.09375 C 5.925781 -11.09375 6.929688 -10.832031 7.578125 -10.3125 C 8.234375 -9.789062 8.5625 -9.007812 8.5625 -7.96875 C 8.5625 -6.5 7.816406 -5.503906 6.328125 -4.984375 L 9.34375 0 L 7.8125 0 L 5.125 -4.609375 Z M 2.8125 -5.71875 L 4.578125 -5.71875 C 5.492188 -5.71875 6.164062 -5.898438 6.59375 -6.265625 C 7.019531 -6.628906 7.234375 -7.171875 7.234375 -7.890625 C 7.234375 -8.628906 7.015625 -9.160156 6.578125 -9.484375 C 6.140625 -9.804688 5.445312 -9.96875 4.5 -9.96875 L 2.8125 -9.96875 Z M 2.8125 -5.71875 "/></g></g></g><g fill="#e6b35b" fill-opacity="1"><g transform="translate(243.961959, 257.408411)"><g><path d="M 8.5 0 L 7.125 -3.53125 L 2.671875 -3.53125 L 1.3125 0 L 0 0 L 4.390625 -11.140625 L 5.46875 -11.140625 L 9.84375 0 Z M 6.71875 -4.6875 L 5.421875 -8.125 C 5.253906 -8.5625 5.082031 -9.097656 4.90625 -9.734375 C 4.800781 -9.242188 4.644531 -8.707031 4.4375 -8.125 L 3.125 -4.6875 Z M 6.71875 -4.6875 "/></g></g></g><g fill="#e6b35b" fill-opacity="1"><g transform="translate(257.00089, 257.408411)"><g><path d="M 8.5625 -7.859375 C 8.5625 -6.734375 8.175781 -5.867188 7.40625 -5.265625 C 6.644531 -4.660156 5.550781 -4.359375 4.125 -4.359375 L 2.8125 -4.359375 L 2.8125 0 L 1.53125 0 L 1.53125 -11.09375 L 4.40625 -11.09375 C 7.175781 -11.09375 8.5625 -10.015625 8.5625 -7.859375 Z M 2.8125 -5.46875 L 3.984375 -5.46875 C 5.117188 -5.46875 5.941406 -5.648438 6.453125 -6.015625 C 6.972656 -6.390625 7.234375 -6.984375 7.234375 -7.796875 C 7.234375 -8.535156 6.988281 -9.082031 6.5 -9.4375 C 6.019531 -9.800781 5.273438 -9.984375 4.265625 -9.984375 L 2.8125 -9.984375 Z M 2.8125 -5.46875 "/></g></g></g><g fill="#e6b35b" fill-opacity="1"><g transform="translate(269.561734, 257.408411)"><g><path d="M 9.953125 0 L 8.65625 0 L 8.65625 -5.21875 L 2.8125 -5.21875 L 2.8125 0 L 1.53125 0 L 1.53125 -11.09375 L 2.8125 -11.09375 L 2.8125 -6.375 L 8.65625 -6.375 L 8.65625 -11.09375 L 9.953125 -11.09375 Z M 9.953125 0 "/></g></g></g><g fill="#e6b35b" fill-opacity="1"><g transform="translate(284.232276, 257.408411)"><g><path d="M 4.34375 -5.546875 L 7.3125 -11.09375 L 8.703125 -11.09375 L 5 -4.296875 L 5 0 L 3.703125 0 L 3.703125 -4.25 L 0 -11.09375 L 1.40625 -11.09375 Z M 4.34375 -5.546875 "/></g></g></g><g clip-path="url(#04b3e6bd2c)"><path fill="#ffffff" d="M 210.074219 249.6875 L 209.140625 246.34375 C 207.285156 245.996094 205.292969 246.539062 203.855469 247.976562 C 203.847656 247.984375 203.839844 247.992188 203.832031 248 Z M 210.074219 249.6875 " fill-opacity="1" fill-rule="nonzero"/></g><g clip-path="url(#ab6a37410b)"><path fill="#ffffff" d="M 206.945312 249.136719 L 203.609375 248.234375 C 202.238281 249.78125 201.808594 251.867188 202.328125 253.753906 Z M 206.945312 249.136719 " fill-opacity="1" fill-rule="nonzero"/></g><g clip-path="url(#d3697d0739)"><path fill="#ffffff" d="M 213.667969 250.28125 C 213.382812 249.4375 212.90625 248.648438 212.238281 247.976562 C 211.441406 247.179688 210.472656 246.660156 209.453125 246.410156 L 211.214844 252.726562 Z M 213.667969 250.28125 " fill-opacity="1" fill-rule="nonzero"/></g><path fill="#ffffff" d="M 209.132812 255.214844 L 212.457031 256.132812 C 213.847656 254.585938 214.28125 252.480469 213.757812 250.589844 Z M 209.132812 255.214844 " fill-opacity="1" fill-rule="nonzero"/><g clip-path="url(#3800a89021)"><path fill="#ffffff" d="M 205.957031 254.636719 L 206.828125 257.972656 C 208.71875 258.367188 210.765625 257.832031 212.234375 256.367188 Z M 205.957031 254.636719 " fill-opacity="1" fill-rule="nonzero"/></g><g clip-path="url(#7605e7fd49)"><path fill="#ffffff" d="M 202.425781 254.058594 C 202.707031 254.902344 203.183594 255.691406 203.851562 256.363281 C 204.617188 257.128906 205.539062 257.640625 206.515625 257.898438 L 204.871094 251.617188 Z M 202.425781 254.058594 " fill-opacity="1" fill-rule="nonzero"/></g><g fill="#ffffff" fill-opacity="1"><g transform="translate(7.195829, 226.749946)"><g><path d="M 2.25 -1.515625 C 2.175781 -1.859375 2.140625 -2.523438 2.140625 -3.515625 C 2.140625 -4.503906 2.328125 -5.550781 2.703125 -6.65625 L 3.03125 -6.65625 C 3.007812 -6.382812 3 -6.113281 3 -5.84375 C 3 -4.34375 3.453125 -3.09375 4.359375 -2.09375 C 5.273438 -1.09375 6.484375 -0.59375 7.984375 -0.59375 C 9.535156 -0.59375 10.8125 -1.0625 11.8125 -2 C 12.8125 -2.9375 13.3125 -4.113281 13.3125 -5.53125 C 13.3125 -6.945312 12.832031 -8.097656 11.875 -8.984375 L 4.765625 -15.578125 C 3.441406 -16.804688 2.78125 -18.296875 2.78125 -20.046875 C 2.78125 -21.796875 3.363281 -23.289062 4.53125 -24.53125 C 5.695312 -25.78125 7.28125 -26.40625 9.28125 -26.40625 C 10.21875 -26.40625 11.28125 -26.28125 12.46875 -26.03125 L 13.90625 -26.03125 L 13.90625 -21.484375 L 13.578125 -21.484375 C 13.578125 -22.640625 13.175781 -23.5625 12.375 -24.25 C 11.570312 -24.945312 10.539062 -25.296875 9.28125 -25.296875 C 8.019531 -25.296875 6.960938 -24.875 6.109375 -24.03125 C 5.265625 -23.195312 4.84375 -22.148438 4.84375 -20.890625 C 4.84375 -19.640625 5.335938 -18.554688 6.328125 -17.640625 L 13.609375 -10.90625 C 14.835938 -9.769531 15.453125 -8.21875 15.453125 -6.25 C 15.453125 -4.28125 14.820312 -2.660156 13.5625 -1.390625 C 12.3125 -0.117188 10.640625 0.515625 8.546875 0.515625 C 7.460938 0.515625 6.304688 0.347656 5.078125 0.015625 C 3.859375 -0.316406 2.914062 -0.828125 2.25 -1.515625 Z M 2.25 -1.515625 "/></g></g></g><g fill="#ffffff" fill-opacity="1"><g transform="translate(24.759396, 226.749946)"><g><path d="M 21.78125 -22.59375 C 21.78125 -23.1875 21.570312 -23.695312 21.15625 -24.125 C 20.738281 -24.5625 20.242188 -24.789062 19.671875 -24.8125 L 12.65625 -24.8125 L 12.65625 -2.65625 C 12.675781 -2.019531 12.910156 -1.476562 13.359375 -1.03125 C 13.816406 -0.59375 14.367188 -0.375 15.015625 -0.375 L 15.5 -0.375 L 15.5 0 L 7.390625 0 L 7.390625 -0.375 L 7.875 -0.375 C 8.519531 -0.375 9.066406 -0.59375 9.515625 -1.03125 C 9.972656 -1.476562 10.21875 -2.007812 10.25 -2.625 L 10.25 -24.8125 L 3.21875 -24.8125 C 2.625 -24.789062 2.125 -24.5625 1.71875 -24.125 C 1.3125 -23.695312 1.109375 -23.1875 1.109375 -22.59375 L 1.109375 -21.96875 L 0.734375 -21.9375 L 0.734375 -26.59375 C 1.109375 -26.445312 1.75 -26.296875 2.65625 -26.140625 C 3.570312 -25.992188 4.410156 -25.921875 5.171875 -25.921875 L 17.671875 -25.921875 C 18.878906 -25.921875 19.882812 -26.015625 20.6875 -26.203125 C 21.488281 -26.390625 21.976562 -26.519531 22.15625 -26.59375 L 22.15625 -21.9375 L 21.78125 -21.96875 Z M 21.78125 -22.59375 "/></g></g></g><g fill="#ffffff" fill-opacity="1"><g transform="translate(47.610518, 226.749946)"><g><path d="M 27.1875 -25.515625 L 26.59375 -25.515625 C 26.070312 -25.515625 25.617188 -25.347656 25.234375 -25.015625 C 24.859375 -24.679688 24.65625 -24.269531 24.625 -23.78125 L 24.625 -9.140625 C 24.625 -6.253906 23.710938 -3.921875 21.890625 -2.140625 C 20.066406 -0.367188 17.640625 0.515625 14.609375 0.515625 C 11.578125 0.515625 9.117188 -0.363281 7.234375 -2.125 C 5.347656 -3.882812 4.40625 -6.207031 4.40625 -9.09375 L 4.40625 -23.671875 C 4.40625 -24.410156 4.082031 -24.953125 3.4375 -25.296875 C 3.144531 -25.441406 2.8125 -25.515625 2.4375 -25.515625 L 1.84375 -25.515625 L 1.84375 -25.890625 L 9.359375 -25.890625 L 9.359375 -25.515625 L 8.765625 -25.515625 C 8.222656 -25.515625 7.765625 -25.347656 7.390625 -25.015625 C 7.023438 -24.679688 6.832031 -24.257812 6.8125 -23.75 L 6.8125 -9.609375 C 6.8125 -6.921875 7.53125 -4.75 8.96875 -3.09375 C 10.40625 -1.445312 12.332031 -0.625 14.75 -0.625 C 17.164062 -0.625 19.125 -1.40625 20.625 -2.96875 C 22.132812 -4.539062 22.890625 -6.597656 22.890625 -9.140625 L 22.890625 -23.75 C 22.867188 -24.257812 22.671875 -24.679688 22.296875 -25.015625 C 21.929688 -25.347656 21.476562 -25.515625 20.9375 -25.515625 L 20.34375 -25.515625 L 20.34375 -25.890625 L 27.1875 -25.890625 Z M 27.1875 -25.515625 "/></g></g></g><g fill="#ffffff" fill-opacity="1"><g transform="translate(76.636616, 226.749946)"><g><path d="M 28.78125 -25.515625 C 28.15625 -25.515625 27.617188 -25.296875 27.171875 -24.859375 C 26.734375 -24.429688 26.503906 -23.910156 26.484375 -23.296875 L 26.484375 -4.21875 C 26.484375 -2.789062 26.566406 -1.429688 26.734375 -0.140625 L 26.8125 0.515625 L 26.484375 0.515625 L 6.328125 -21 L 6.328125 -2.59375 C 6.347656 -1.726562 6.726562 -1.085938 7.46875 -0.671875 C 7.8125 -0.472656 8.179688 -0.375 8.578125 -0.375 L 9.28125 -0.375 L 9.28125 0 L 1.671875 0 L 1.671875 -0.375 L 2.359375 -0.375 C 2.984375 -0.375 3.515625 -0.585938 3.953125 -1.015625 C 4.398438 -1.453125 4.625 -1.988281 4.625 -2.625 L 4.625 -21.828125 C 4.625 -23.328125 4.535156 -24.671875 4.359375 -25.859375 L 4.296875 -26.4375 L 4.65625 -26.4375 L 24.8125 -4.921875 L 24.8125 -23.265625 C 24.789062 -23.898438 24.554688 -24.429688 24.109375 -24.859375 C 23.671875 -25.296875 23.144531 -25.515625 22.53125 -25.515625 L 21.828125 -25.515625 L 21.828125 -25.890625 L 29.4375 -25.890625 L 29.4375 -25.515625 Z M 28.78125 -25.515625 "/></g></g></g><g fill="#ffffff" fill-opacity="1"><g transform="translate(107.733367, 226.749946)"><g><path d="M 28.78125 -25.515625 C 28.15625 -25.515625 27.617188 -25.296875 27.171875 -24.859375 C 26.734375 -24.429688 26.503906 -23.910156 26.484375 -23.296875 L 26.484375 -4.21875 C 26.484375 -2.789062 26.566406 -1.429688 26.734375 -0.140625 L 26.8125 0.515625 L 26.484375 0.515625 L 6.328125 -21 L 6.328125 -2.59375 C 6.347656 -1.726562 6.726562 -1.085938 7.46875 -0.671875 C 7.8125 -0.472656 8.179688 -0.375 8.578125 -0.375 L 9.28125 -0.375 L 9.28125 0 L 1.671875 0 L 1.671875 -0.375 L 2.359375 -0.375 C 2.984375 -0.375 3.515625 -0.585938 3.953125 -1.015625 C 4.398438 -1.453125 4.625 -1.988281 4.625 -2.625 L 4.625 -21.828125 C 4.625 -23.328125 4.535156 -24.671875 4.359375 -25.859375 L 4.296875 -26.4375 L 4.65625 -26.4375 L 24.8125 -4.921875 L 24.8125 -23.265625 C 24.789062 -23.898438 24.554688 -24.429688 24.109375 -24.859375 C 23.671875 -25.296875 23.144531 -25.515625 22.53125 -25.515625 L 21.828125 -25.515625 L 21.828125 -25.890625 L 29.4375 -25.890625 L 29.4375 -25.515625 Z M 28.78125 -25.515625 "/></g></g></g><g fill="#ffffff" fill-opacity="1"><g transform="translate(138.830117, 226.749946)"><g><path d="M 2.703125 -0.375 C 3.335938 -0.375 3.882812 -0.597656 4.34375 -1.046875 C 4.800781 -1.503906 5.039062 -2.054688 5.0625 -2.703125 L 5.0625 -23.21875 C 5.039062 -23.863281 4.800781 -24.40625 4.34375 -24.84375 C 3.882812 -25.289062 3.335938 -25.515625 2.703125 -25.515625 L 2.21875 -25.515625 L 2.21875 -25.890625 L 10.3125 -25.890625 L 10.3125 -25.515625 L 9.84375 -25.515625 C 9.195312 -25.515625 8.644531 -25.289062 8.1875 -24.84375 C 7.738281 -24.40625 7.5 -23.863281 7.46875 -23.21875 L 7.46875 -2.703125 C 7.46875 -2.054688 7.703125 -1.503906 8.171875 -1.046875 C 8.640625 -0.597656 9.195312 -0.375 9.84375 -0.375 L 10.3125 -0.375 L 10.3125 0 L 2.21875 0 L 2.21875 -0.375 Z M 2.703125 -0.375 "/></g></g></g><g fill="#ffffff" fill-opacity="1"><g transform="translate(151.327982, 226.749946)"><g><path d="M 28.78125 -25.515625 C 28.15625 -25.515625 27.617188 -25.296875 27.171875 -24.859375 C 26.734375 -24.429688 26.503906 -23.910156 26.484375 -23.296875 L 26.484375 -4.21875 C 26.484375 -2.789062 26.566406 -1.429688 26.734375 -0.140625 L 26.8125 0.515625 L 26.484375 0.515625 L 6.328125 -21 L 6.328125 -2.59375 C 6.347656 -1.726562 6.726562 -1.085938 7.46875 -0.671875 C 7.8125 -0.472656 8.179688 -0.375 8.578125 -0.375 L 9.28125 -0.375 L 9.28125 0 L 1.671875 0 L 1.671875 -0.375 L 2.359375 -0.375 C 2.984375 -0.375 3.515625 -0.585938 3.953125 -1.015625 C 4.398438 -1.453125 4.625 -1.988281 4.625 -2.625 L 4.625 -21.828125 C 4.625 -23.328125 4.535156 -24.671875 4.359375 -25.859375 L 4.296875 -26.4375 L 4.65625 -26.4375 L 24.8125 -4.921875 L 24.8125 -23.265625 C 24.789062 -23.898438 24.554688 -24.429688 24.109375 -24.859375 C 23.671875 -25.296875 23.144531 -25.515625 22.53125 -25.515625 L 21.828125 -25.515625 L 21.828125 -25.890625 L 29.4375 -25.890625 L 29.4375 -25.515625 Z M 28.78125 -25.515625 "/></g></g></g><g fill="#ffffff" fill-opacity="1"><g transform="translate(182.424733, 226.749946)"><g><path d="M 15.5 0.515625 C 11.550781 0.492188 8.347656 -0.75 5.890625 -3.21875 C 3.441406 -5.6875 2.21875 -8.925781 2.21875 -12.9375 C 2.21875 -16.957031 3.441406 -20.207031 5.890625 -22.6875 C 8.347656 -25.164062 11.550781 -26.40625 15.5 -26.40625 C 18.894531 -26.40625 21.890625 -25.566406 24.484375 -23.890625 L 25.21875 -18.671875 L 24.890625 -18.671875 C 24.347656 -20.796875 23.253906 -22.429688 21.609375 -23.578125 C 19.972656 -24.722656 17.9375 -25.296875 15.5 -25.296875 C 12.363281 -25.296875 9.828125 -24.160156 7.890625 -21.890625 C 5.960938 -19.628906 5 -16.644531 5 -12.9375 C 5 -9.238281 5.960938 -6.257812 7.890625 -4 C 9.828125 -1.75 12.363281 -0.613281 15.5 -0.59375 C 17.101562 -0.59375 18.625 -0.875 20.0625 -1.4375 C 21.507812 -2.007812 22.773438 -2.800781 23.859375 -3.8125 L 23.859375 -10.359375 C 23.859375 -10.898438 23.691406 -11.3125 23.359375 -11.59375 C 23.023438 -11.875 22.5625 -12.015625 21.96875 -12.015625 L 21.375 -12.015625 L 21.375 -12.390625 L 28.625 -12.390625 L 28.625 -12.015625 L 28.078125 -12.015625 C 27.453125 -12.015625 26.976562 -11.875 26.65625 -11.59375 C 26.34375 -11.3125 26.195312 -10.898438 26.21875 -10.359375 L 26.21875 -4.25 C 25.582031 -3.414062 24.816406 -2.664062 23.921875 -2 C 23.035156 -1.332031 21.847656 -0.742188 20.359375 -0.234375 C 18.867188 0.265625 17.25 0.515625 15.5 0.515625 Z M 15.5 0.515625 "/></g></g></g><g fill="#ffffff" fill-opacity="1"><g transform="translate(211.931512, 226.749946)"><g/></g></g><g fill="#ffffff" fill-opacity="1"><g transform="translate(221.175496, 226.749946)"><g><path d="M 26.46875 -0.375 L 26.765625 -0.375 L 26.765625 0 L 18.453125 0 L 18.453125 -0.375 L 18.78125 -0.375 C 19.300781 -0.375 19.6875 -0.539062 19.9375 -0.875 C 20.195312 -1.207031 20.328125 -1.519531 20.328125 -1.8125 C 20.328125 -2.101562 20.28125 -2.398438 20.1875 -2.703125 L 17.828125 -8.984375 L 7.828125 -8.984375 L 5.359375 -2.65625 C 5.253906 -2.363281 5.203125 -2.078125 5.203125 -1.796875 C 5.203125 -1.515625 5.332031 -1.207031 5.59375 -0.875 C 5.851562 -0.539062 6.242188 -0.375 6.765625 -0.375 L 7.09375 -0.375 L 7.09375 0 L -0.34375 0 L -0.34375 -0.375 L 0 -0.375 C 0.613281 -0.375 1.210938 -0.566406 1.796875 -0.953125 C 2.390625 -1.347656 2.875 -1.929688 3.25 -2.703125 L 11.609375 -22.59375 C 12.515625 -24.59375 12.96875 -25.863281 12.96875 -26.40625 L 13.3125 -26.40625 L 23.21875 -2.703125 C 23.5625 -1.929688 24.03125 -1.347656 24.625 -0.953125 C 25.21875 -0.566406 25.832031 -0.375 26.46875 -0.375 Z M 8.28125 -10.09375 L 17.375 -10.09375 L 12.9375 -21.96875 Z M 8.28125 -10.09375 "/></g></g></g><g fill="#ffffff" fill-opacity="1"><g transform="translate(247.502351, 226.749946)"><g><path d="M 28.78125 -25.515625 C 28.15625 -25.515625 27.617188 -25.296875 27.171875 -24.859375 C 26.734375 -24.429688 26.503906 -23.910156 26.484375 -23.296875 L 26.484375 -4.21875 C 26.484375 -2.789062 26.566406 -1.429688 26.734375 -0.140625 L 26.8125 0.515625 L 26.484375 0.515625 L 6.328125 -21 L 6.328125 -2.59375 C 6.347656 -1.726562 6.726562 -1.085938 7.46875 -0.671875 C 7.8125 -0.472656 8.179688 -0.375 8.578125 -0.375 L 9.28125 -0.375 L 9.28125 0 L 1.671875 0 L 1.671875 -0.375 L 2.359375 -0.375 C 2.984375 -0.375 3.515625 -0.585938 3.953125 -1.015625 C 4.398438 -1.453125 4.625 -1.988281 4.625 -2.625 L 4.625 -21.828125 C 4.625 -23.328125 4.535156 -24.671875 4.359375 -25.859375 L 4.296875 -26.4375 L 4.65625 -26.4375 L 24.8125 -4.921875 L 24.8125 -23.265625 C 24.789062 -23.898438 24.554688 -24.429688 24.109375 -24.859375 C 23.671875 -25.296875 23.144531 -25.515625 22.53125 -25.515625 L 21.828125 -25.515625 L 21.828125 -25.890625 L 29.4375 -25.890625 L 29.4375 -25.515625 Z M 28.78125 -25.515625 "/></g></g></g><g fill="#ffffff" fill-opacity="1"><g transform="translate(278.599101, 226.749946)"><g><path d="M 15.5 0.515625 C 11.550781 0.492188 8.347656 -0.75 5.890625 -3.21875 C 3.441406 -5.6875 2.21875 -8.925781 2.21875 -12.9375 C 2.21875 -16.957031 3.441406 -20.207031 5.890625 -22.6875 C 8.347656 -25.164062 11.550781 -26.40625 15.5 -26.40625 C 18.894531 -26.40625 21.890625 -25.566406 24.484375 -23.890625 L 25.21875 -18.671875 L 24.890625 -18.671875 C 24.347656 -20.796875 23.253906 -22.429688 21.609375 -23.578125 C 19.972656 -24.722656 17.9375 -25.296875 15.5 -25.296875 C 12.363281 -25.296875 9.828125 -24.160156 7.890625 -21.890625 C 5.960938 -19.628906 5 -16.644531 5 -12.9375 C 5 -9.238281 5.960938 -6.257812 7.890625 -4 C 9.828125 -1.75 12.363281 -0.613281 15.5 -0.59375 C 17.101562 -0.59375 18.625 -0.875 20.0625 -1.4375 C 21.507812 -2.007812 22.773438 -2.800781 23.859375 -3.8125 L 23.859375 -10.359375 C 23.859375 -10.898438 23.691406 -11.3125 23.359375 -11.59375 C 23.023438 -11.875 22.5625 -12.015625 21.96875 -12.015625 L 21.375 -12.015625 L 21.375 -12.390625 L 28.625 -12.390625 L 28.625 -12.015625 L 28.078125 -12.015625 C 27.453125 -12.015625 26.976562 -11.875 26.65625 -11.59375 C 26.34375 -11.3125 26.195312 -10.898438 26.21875 -10.359375 L 26.21875 -4.25 C 25.582031 -3.414062 24.816406 -2.664062 23.921875 -2 C 23.035156 -1.332031 21.847656 -0.742188 20.359375 -0.234375 C 18.867188 0.265625 17.25 0.515625 15.5 0.515625 Z M 15.5 0.515625 "/></g></g></g><g fill="#ffffff" fill-opacity="1"><g transform="translate(308.105881, 226.749946)"><g><path d="M 2.703125 -0.375 C 3.335938 -0.375 3.882812 -0.597656 4.34375 -1.046875 C 4.800781 -1.503906 5.039062 -2.054688 5.0625 -2.703125 L 5.0625 -23.1875 C 5.039062 -23.832031 4.800781 -24.378906 4.34375 -24.828125 C 3.882812 -25.285156 3.335938 -25.515625 2.703125 -25.515625 L 2.21875 -25.515625 L 2.21875 -25.890625 L 10.3125 -25.890625 L 10.3125 -25.515625 L 9.84375 -25.515625 C 8.945312 -25.515625 8.265625 -25.132812 7.796875 -24.375 C 7.578125 -24 7.46875 -23.601562 7.46875 -23.1875 L 7.46875 -1.140625 L 12.765625 -1.140625 C 14.585938 -1.140625 15.976562 -1.546875 16.9375 -2.359375 C 17.894531 -3.179688 18.695312 -4.390625 19.34375 -5.984375 L 19.71875 -5.984375 L 17.5625 0 L 2.21875 0 L 2.21875 -0.375 Z M 2.703125 -0.375 "/></g></g></g><g fill="#ffffff" fill-opacity="1"><g transform="translate(328.886352, 226.749946)"><g><path d="M 2.703125 -0.375 C 3.335938 -0.375 3.882812 -0.597656 4.34375 -1.046875 C 4.800781 -1.503906 5.039062 -2.054688 5.0625 -2.703125 L 5.0625 -23.40625 C 4.988281 -24 4.726562 -24.5 4.28125 -24.90625 C 3.84375 -25.3125 3.316406 -25.515625 2.703125 -25.515625 L 2.25 -25.515625 L 2.21875 -25.890625 L 13.0625 -25.890625 C 13.820312 -25.890625 14.648438 -25.960938 15.546875 -26.109375 C 16.453125 -26.253906 17.085938 -26.40625 17.453125 -26.5625 L 17.453125 -21.890625 L 17.09375 -21.890625 L 17.09375 -22.5625 C 17.09375 -23.15625 16.882812 -23.660156 16.46875 -24.078125 C 16.0625 -24.492188 15.578125 -24.71875 15.015625 -24.75 L 7.46875 -24.75 L 7.46875 -13.3125 L 13.71875 -13.3125 C 14.207031 -13.332031 14.625 -13.515625 14.96875 -13.859375 C 15.320312 -14.210938 15.5 -14.644531 15.5 -15.15625 L 15.5 -15.6875 L 15.859375 -15.6875 L 15.859375 -9.84375 L 15.5 -9.84375 L 15.5 -10.390625 C 15.5 -10.878906 15.332031 -11.296875 15 -11.640625 C 14.664062 -11.992188 14.253906 -12.179688 13.765625 -12.203125 L 7.46875 -12.203125 L 7.46875 -1.140625 L 12.765625 -1.140625 C 14.585938 -1.140625 15.976562 -1.546875 16.9375 -2.359375 C 17.894531 -3.179688 18.695312 -4.390625 19.34375 -5.984375 L 19.71875 -5.984375 L 17.5625 0 L 2.21875 0 L 2.21875 -0.375 Z M 2.703125 -0.375 "/></g></g></g><g fill="#ffffff" fill-opacity="1"><g transform="translate(350.221459, 226.749946)"><g><path d="M 2.25 -1.515625 C 2.175781 -1.859375 2.140625 -2.523438 2.140625 -3.515625 C 2.140625 -4.503906 2.328125 -5.550781 2.703125 -6.65625 L 3.03125 -6.65625 C 3.007812 -6.382812 3 -6.113281 3 -5.84375 C 3 -4.34375 3.453125 -3.09375 4.359375 -2.09375 C 5.273438 -1.09375 6.484375 -0.59375 7.984375 -0.59375 C 9.535156 -0.59375 10.8125 -1.0625 11.8125 -2 C 12.8125 -2.9375 13.3125 -4.113281 13.3125 -5.53125 C 13.3125 -6.945312 12.832031 -8.097656 11.875 -8.984375 L 4.765625 -15.578125 C 3.441406 -16.804688 2.78125 -18.296875 2.78125 -20.046875 C 2.78125 -21.796875 3.363281 -23.289062 4.53125 -24.53125 C 5.695312 -25.78125 7.28125 -26.40625 9.28125 -26.40625 C 10.21875 -26.40625 11.28125 -26.28125 12.46875 -26.03125 L 13.90625 -26.03125 L 13.90625 -21.484375 L 13.578125 -21.484375 C 13.578125 -22.640625 13.175781 -23.5625 12.375 -24.25 C 11.570312 -24.945312 10.539062 -25.296875 9.28125 -25.296875 C 8.019531 -25.296875 6.960938 -24.875 6.109375 -24.03125 C 5.265625 -23.195312 4.84375 -22.148438 4.84375 -20.890625 C 4.84375 -19.640625 5.335938 -18.554688 6.328125 -17.640625 L 13.609375 -10.90625 C 14.835938 -9.769531 15.453125 -8.21875 15.453125 -6.25 C 15.453125 -4.28125 14.820312 -2.660156 13.5625 -1.390625 C 12.3125 -0.117188 10.640625 0.515625 8.546875 0.515625 C 7.460938 0.515625 6.304688 0.347656 5.078125 0.015625 C 3.859375 -0.316406 2.914062 -0.828125 2.25 -1.515625 Z M 2.25 -1.515625 "/></g></g></g></svg>